<?xml version="1.0" standalone="no"?>
<!DOCTYPE svg PUBLIC "-//W3C//DTD SVG 20010904//EN"
 "http://www.w3.org/TR/2001/REC-SVG-20010904/DTD/svg10.dtd">
<svg version="1.0" xmlns="http://www.w3.org/2000/svg"
 width="500.000000pt" height="500.000000pt" viewBox="0 0 500.000000 500.000000"
 preserveAspectRatio="xMidYMid meet">
<metadata>
Created by potrace 1.14, written by Peter Selinger 2001-2017
</metadata>
<g transform="translate(0.000000,500.000000) scale(0.100000,-0.100000)"
fill="#000000" stroke="none">
<path d="M2127 4484 c-62 -8 -124 -22 -147 -34 -22 -11 -45 -20 -52 -20 -25 0
-213 -145 -285 -221 -55 -58 -106 -216 -81 -247 8 -9 14 -49 14 -106 2 -77 -1
-93 -17 -107 -10 -9 -16 -19 -12 -23 3 -3 2 -6 -4 -6 -10 0 -77 -119 -70 -126
5 -5 44 32 50 48 2 7 7 10 11 7 3 -3 -5 -18 -18 -32 -13 -14 -22 -28 -20 -31
2 -3 1 -4 -3 -1 -9 7 -33 -15 -33 -32 0 -8 5 -11 10 -8 13 8 13 -11 0 -36 -8
-14 -7 -19 1 -19 8 0 9 -4 0 -13 -6 -8 -9 -16 -6 -18 2 -3 0 -57 -5 -121 -11
-127 -1 -209 27 -240 14 -16 17 -16 28 -2 28 39 134 -26 136 -83 0 -15 4 -37
9 -48 6 -13 7 2 3 40 -3 33 -7 61 -8 63 -2 2 1 17 5 33 5 17 5 29 0 29 -6 0
-6 9 -1 23 5 12 17 76 27 142 16 109 62 300 63 266 1 -8 4 -11 8 -8 3 4 12 2
20 -5 12 -10 12 -7 2 15 -9 19 -9 33 -2 49 9 20 11 16 18 -33 4 -32 4 -72 0
-90 -5 -27 -4 -31 5 -19 9 12 11 10 7 -12 -2 -16 -1 -28 2 -28 8 0 141 95 164
117 16 15 19 16 28 3 8 -11 9 -6 5 19 -5 30 -4 32 11 20 15 -13 16 -11 10 17
-5 28 -4 31 17 27 15 -3 25 1 29 12 4 9 3 14 -3 10 -6 -3 -10 1 -10 9 0 25 18
28 34 5 8 -12 13 -25 11 -29 -3 -4 4 -15 15 -25 18 -16 18 -16 13 7 -5 18 -3
21 7 11 13 -12 43 -6 35 7 -3 5 5 6 17 2 21 -5 22 -4 9 11 -8 10 -9 17 -3 17
11 0 28 38 24 53 -1 5 3 5 9 1 9 -5 10 0 6 15 -3 14 0 24 9 28 11 4 12 8 3 20
-7 7 -18 12 -25 9 -16 -6 -42 15 -46 38 -2 14 4 19 22 22 14 1 19 0 12 -2 -6
-3 -10 -10 -6 -15 8 -14 24 -1 24 20 0 12 -7 18 -17 17 -25 -2 -28 59 -4 83
10 10 23 26 27 34 14 23 116 97 136 97 9 0 34 -17 55 -37 21 -20 42 -36 47
-35 4 2 19 -4 32 -13 13 -8 24 -12 24 -9 0 4 8 0 18 -9 18 -16 32 -17 66 -2
12 5 21 3 27 -6 5 -8 9 -9 10 -4 0 6 4 1 9 -10 12 -28 12 -67 0 -60 -15 9 -12
-3 7 -25 12 -14 20 -16 29 -9 14 12 37 3 29 -11 -3 -5 -1 -11 3 -14 5 -3 9
-42 8 -88 -1 -79 -2 -82 -26 -89 l-25 -6 25 -4 c14 -3 24 -10 23 -16 -2 -7 4
-10 12 -7 8 4 15 1 15 -5 0 -17 -28 -13 -39 7 -10 16 -10 16 -11 0 0 -17 37
-45 53 -40 4 1 7 -3 7 -9 0 -6 -9 -8 -21 -4 -20 7 -20 6 2 -16 15 -15 19 -24
10 -27 -9 -3 -9 -7 -1 -18 14 -15 5 -34 -16 -34 -8 0 -14 -7 -14 -15 0 -14 -4
-16 -37 -19 -23 -2 -91 -69 -98 -95 -10 -42 -34 -62 -57 -50 -11 6 -22 9 -24
6 -2 -2 -6 -60 -9 -128 -2 -68 -9 -142 -14 -164 -16 -60 -13 -99 10 -170 30
-94 19 -130 -39 -128 -7 1 -18 -10 -24 -23 -10 -20 -8 -27 8 -38 24 -18 10
-34 -39 -46 -27 -6 -37 -4 -41 6 -9 23 -45 16 -73 -13 -15 -16 -22 -21 -18
-13 8 13 7 13 -8 1 -9 -7 -17 -19 -17 -25 0 -6 4 -5 9 3 7 11 12 7 25 -15 8
-16 15 -25 16 -21 0 4 11 -4 24 -20 l24 -28 -71 -12 c-66 -11 -127 -8 -127 6
0 3 7 15 15 25 18 24 19 40 3 30 -10 -5 -10 -4 -1 6 6 7 9 19 6 28 -4 10 -2
13 5 8 6 -3 14 -1 18 5 4 7 3 9 -4 5 -5 -3 -12 -1 -14 4 -3 11 -33 -8 -80 -52
-27 -25 -41 -25 -16 0 12 12 1 17 -27 13 -5 -1 15 22 45 51 62 60 110 129 110
159 0 18 -2 19 -27 4 -42 -22 -62 -42 -136 -133 -64 -79 -86 -120 -73 -141 4
-5 2 -12 -3 -16 -12 -7 6 -65 20 -65 5 0 9 14 9 30 0 34 16 42 17 8 1 -59 4
-69 16 -65 6 2 11 9 10 15 -3 15 36 6 57 -13 23 -21 33 -19 25 5 -8 26 3 25
33 -2 18 -17 36 -23 75 -24 29 0 42 1 30 3 -13 3 -23 9 -23 14 0 5 -6 9 -14 9
-12 0 -25 28 -26 53 0 4 14 5 30 2 17 -3 30 -1 30 5 0 12 176 5 214 -9 18 -8
33 -8 46 -1 43 23 79 0 80 -52 0 -34 -7 -38 -78 -41 -53 -2 -58 -4 -54 -22 5
-19 5 -19 -12 -2 -22 22 -40 22 -57 0 -7 -10 -9 -15 -5 -11 13 11 36 -11 37
-36 1 -17 2 -18 6 -3 7 26 27 15 31 -17 3 -25 1 -27 -20 -21 -16 5 -20 4 -13
-3 6 -6 29 -13 52 -15 23 -3 47 -8 52 -12 6 -3 11 -2 11 4 0 6 7 8 16 4 13 -5
13 -7 2 -14 -7 -5 -23 -9 -35 -9 -12 0 -28 -6 -35 -13 -7 -7 -25 -12 -40 -10
-30 2 -41 -12 -51 -63 -5 -28 -4 -31 14 -27 15 4 18 2 12 -13 -6 -17 -5 -18
12 -4 17 14 18 13 13 -12 -4 -19 -1 -25 9 -21 17 7 18 -23 1 -31 -9 -3 -8 -8
4 -16 15 -9 16 -14 5 -33 -18 -32 -31 -44 -43 -40 -11 4 -34 -38 -34 -62 0 -8
-4 -15 -10 -15 -5 0 -10 4 -10 9 0 4 -13 7 -30 5 -16 -2 -30 1 -30 6 0 6 -6
10 -14 10 -19 0 -137 90 -131 99 2 5 -7 14 -20 21 -14 7 -25 17 -25 22 0 4 -8
8 -18 8 -10 0 -22 3 -25 7 -4 3 -22 7 -39 9 -33 2 -106 34 -79 34 11 0 10 5
-5 19 -35 34 -54 61 -54 77 0 9 -5 12 -12 8 -8 -5 -9 -2 -5 10 4 9 3 15 -2 12
-4 -3 -18 9 -31 26 -18 24 -20 32 -9 39 10 6 7 8 -9 6 -12 0 -22 -6 -22 -11 0
-21 101 -217 115 -222 7 -3 11 -12 8 -20 -5 -13 14 -20 40 -15 5 1 6 -3 2 -9
-3 -6 -12 -7 -18 -4 -7 4 -2 -3 11 -15 12 -12 22 -27 22 -34 0 -7 4 -6 10 3 7
11 10 11 10 2 0 -7 4 -11 9 -8 4 3 26 -10 47 -29 21 -19 44 -35 51 -35 6 0 18
-7 27 -15 8 -9 31 -22 51 -30 19 -9 35 -20 35 -26 0 -5 4 -8 9 -5 4 3 16 -3
26 -14 10 -11 26 -20 36 -20 9 0 19 -5 21 -10 2 -6 13 -12 25 -14 40 -8 154
-67 148 -77 -6 -9 8 -13 33 -10 18 3 15 -20 -5 -36 -10 -8 -12 -12 -5 -8 19
10 14 -2 -10 -25 -12 -11 -16 -20 -10 -20 18 0 14 -28 -5 -39 -11 -6 -13 -11
-5 -11 10 0 10 -5 2 -20 -8 -15 -8 -20 2 -18 6 2 13 -1 14 -7 5 -31 18 -55 28
-55 7 0 6 -4 -2 -9 -10 -6 -7 -10 13 -15 19 -5 25 -11 21 -22 -3 -9 -1 -24 4
-34 5 -10 6 -20 1 -22 -4 -2 -11 -20 -15 -41 -6 -33 -5 -37 14 -37 11 0 20 4
20 9 0 5 11 12 25 15 14 4 23 11 20 16 -3 6 -2 10 4 10 5 0 11 -4 13 -10 2 -6
13 -5 28 3 14 8 36 16 48 19 19 5 21 4 11 -8 -6 -8 -8 -14 -4 -14 4 0 2 -7 -5
-15 -9 -11 -4 -26 27 -76 21 -34 48 -72 61 -84 12 -12 22 -29 22 -38 0 -18 16
-31 23 -20 2 5 3 3 1 -3 -1 -7 5 -20 14 -30 9 -11 23 -31 30 -45 7 -14 28 -41
47 -61 18 -20 30 -39 27 -42 -3 -3 0 -6 6 -6 7 0 12 -5 12 -11 0 -5 -4 -8 -9
-5 -15 10 -185 238 -215 288 -37 63 -49 72 -78 57 -13 -7 -30 -15 -37 -19 -44
-20 -79 -131 -51 -164 6 -9 9 -20 5 -26 -3 -5 -3 -10 2 -10 4 0 9 -21 10 -47
1 -26 7 -49 12 -51 6 -2 11 -14 11 -26 0 -30 10 -38 29 -24 13 10 14 10 4 -1
-7 -8 -8 -22 -4 -35 4 -11 9 -44 10 -72 2 -41 -4 -62 -28 -105 -42 -75 -69
-134 -83 -183 -6 -22 -15 -45 -18 -51 -20 -29 -57 -182 -83 -350 -3 -14 67 -9
71 4 2 6 10 11 18 11 8 0 14 9 14 20 0 11 5 20 11 20 5 0 8 4 4 9 -3 5 0 13 6
17 9 5 11 -6 6 -45 l-6 -52 60 2 c57 2 59 3 43 20 -16 18 -15 19 7 28 13 5 19
10 13 10 -7 1 -14 12 -16 25 -4 18 -1 23 10 19 8 -3 18 0 24 8 6 9 7 -8 3 -48
-4 -38 -3 -63 3 -63 5 0 14 48 21 108 13 116 24 167 49 222 8 19 16 37 17 40
1 3 7 18 13 33 7 16 12 33 12 38 0 5 5 9 11 9 5 0 7 6 3 13 -4 6 -4 9 1 5 15
-14 15 -71 1 -122 -8 -28 -17 -64 -20 -81 -22 -132 -37 -198 -50 -224 -21 -41
-21 -41 22 -41 34 0 40 5 66 50 31 52 51 67 62 48 4 -7 3 -8 -5 -4 -6 4 -13 1
-15 -6 -2 -7 -7 -22 -12 -33 -21 -57 -24 -56 99 -53 77 2 112 7 112 15 0 6 3
15 7 19 4 3 6 -3 3 -15 -3 -19 1 -21 39 -21 50 0 59 6 46 31 -8 14 -6 20 7 28
14 8 15 12 6 22 -9 9 -9 18 -2 31 6 11 9 45 8 76 -2 32 0 63 5 71 6 10 5 12
-2 7 -7 -4 -12 -3 -12 3 0 5 6 12 13 14 7 3 5 6 -5 6 -21 1 -20 -1 -22 69 -1
43 2 52 16 52 15 0 16 4 7 26 l-10 27 28 -18 c20 -13 24 -14 16 -3 -7 8 -10
18 -6 21 3 4 2 7 -4 7 -14 0 -12 32 3 47 12 12 3 57 -19 91 -5 6 -5 17 -2 22
9 14 42 12 49 -2 3 -7 3 -1 1 15 -2 18 1 27 10 27 18 0 16 -84 -2 -86 -23 -3
-24 -4 -13 -24 6 -11 17 -20 25 -20 18 0 19 -21 3 -39 -10 -11 -10 -13 0 -7
17 10 15 1 -3 -14 -12 -10 -16 -8 -24 11 -7 17 -10 19 -10 7 -1 -9 6 -24 15
-32 8 -9 16 -25 17 -35 0 -11 4 -18 8 -15 4 2 10 0 14 -6 3 -5 -1 -10 -10 -10
-11 0 -15 -5 -12 -14 3 -7 2 -17 -3 -22 -10 -10 10 -84 22 -84 5 0 8 -5 8 -11
0 -5 -4 -8 -9 -4 -6 3 -9 -3 -8 -14 0 -11 4 -18 8 -15 4 2 6 -7 5 -21 0 -14
-3 -25 -6 -25 -3 0 -5 -19 -5 -42 -1 -45 -10 -103 -21 -131 -5 -15 6 -17 115
-17 99 0 121 3 121 14 0 8 5 18 10 21 6 4 10 3 9 -2 -5 -27 4 -33 46 -33 38 0
45 3 45 19 0 11 -6 21 -12 24 -10 3 -10 8 1 21 10 12 11 20 4 24 -5 4 -12 14
-15 22 -4 10 -11 4 -21 -20 -9 -19 -17 -33 -17 -30 -8 35 -9 53 -1 42 6 -10
10 -8 14 8 8 30 -2 57 -14 38 -6 -9 -8 -4 -7 14 l2 27 23 -21 c12 -11 20 -24
18 -28 -2 -4 2 -7 10 -7 11 0 12 4 4 14 -9 10 -8 13 4 13 27 0 27 15 1 43 -28
30 -31 47 -8 47 11 0 14 5 10 17 -4 10 -4 14 0 10 4 -4 14 -1 23 5 9 7 13 8 8
3 -4 -4 0 -19 9 -32 15 -23 14 -24 -3 -14 -15 8 -19 6 -20 -10 -1 -11 2 -17 7
-14 5 3 11 1 15 -5 3 -5 2 -10 -3 -10 -5 0 -7 -12 -4 -26 3 -16 -1 -29 -8 -34
-11 -7 -11 -15 1 -47 8 -21 15 -50 14 -65 l-2 -28 204 0 c189 0 203 1 203 18
0 10 6 24 13 31 6 7 7 11 2 9 -6 -2 -11 0 -13 5 -4 9 8 68 16 82 9 15 8 85 -1
85 -5 0 -5 9 -2 20 4 13 2 20 -6 20 -7 0 -5 6 6 13 16 12 16 18 7 47 -14 39
-15 53 -3 46 4 -3 6 6 3 19 -2 14 -9 25 -14 25 -6 0 -7 -7 -4 -16 3 -8 2 -12
-4 -9 -6 3 -10 20 -10 37 0 26 2 29 15 18 15 -12 22 0 8 14 -4 3 -8 17 -10 29
-1 12 -5 36 -8 52 -4 24 -3 26 6 13 21 -37 33 -17 14 25 -4 10 -2 23 5 32 7 9
10 18 6 22 -3 3 -6 1 -6 -5 0 -7 -6 -12 -12 -12 -7 1 -2 10 11 20 17 15 24 32
26 63 1 23 0 47 -4 52 -8 15 -13 37 -12 64 1 13 -4 30 -10 37 -6 7 -8 18 -5
23 4 5 2 12 -4 16 -17 10 -11 36 12 56 11 11 25 19 29 19 15 0 59 -43 53 -52
-3 -4 0 -8 5 -8 6 0 11 -7 11 -15 0 -8 4 -15 8 -15 9 0 62 -109 62 -128 0 -7
4 -12 9 -12 6 0 8 -9 6 -20 -2 -11 1 -23 7 -26 7 -5 8 -2 3 6 -5 8 -3 11 6 8
8 -3 13 -13 11 -23 -2 -9 0 -15 5 -12 10 7 11 2 11 -133 1 -146 -2 -199 -10
-194 -4 3 -6 -13 -3 -36 2 -22 -1 -40 -6 -40 -5 0 -7 -11 -3 -24 3 -13 2 -26
-3 -29 -5 -3 -9 -28 -8 -56 1 -27 -3 -48 -7 -45 -14 9 -9 -13 6 -26 10 -8 12
-19 7 -33 -18 -54 -27 -52 262 -55 l267 -2 -1 22 c0 30 -20 142 -54 303 -15
72 -30 150 -35 175 -32 178 -131 429 -192 487 -29 27 -207 133 -224 133 -3 0
-84 43 -179 95 -200 110 -559 287 -689 339 -108 44 -215 120 -216 154 0 13
-20 62 -45 110 -53 103 -68 198 -42 267 8 22 33 90 55 150 22 61 49 128 60
150 11 22 23 55 27 73 6 31 8 32 62 32 47 0 59 4 84 29 19 19 29 40 29 58 0
16 12 45 26 64 31 41 121 221 129 260 3 15 1 54 -5 87 -8 44 -8 78 0 124 6 35
15 92 20 128 20 134 27 153 70 178 45 25 110 80 110 92 0 4 -10 10 -22 13 -21
6 -21 7 -5 25 16 17 16 20 2 25 -8 4 -15 13 -15 22 0 11 -10 15 -35 15 -25 0
-38 5 -42 18 -3 9 -40 59 -81 110 -64 79 -75 99 -80 140 -2 26 -8 52 -12 57
-4 6 -13 26 -19 46 -6 20 -21 45 -31 54 -11 10 -20 26 -20 36 0 27 -99 167
-163 230 -59 58 -144 107 -227 129 -25 7 -54 16 -65 21 -11 5 -67 18 -125 30
-88 18 -121 20 -205 13 -127 -10 -343 -11 -415 -2 -32 4 -100 1 -163 -8z m453
-58 c0 -3 -4 -8 -10 -11 -5 -3 -10 -1 -10 4 0 6 5 11 10 11 6 0 10 -2 10 -4z
m-721 -316 c0 -10 -3 -8 -9 5 -12 27 -12 43 0 25 5 -8 9 -22 9 -30z m-90 -135
c0 -5 -4 -3 -9 5 -5 8 -9 22 -9 30 0 16 17 -16 18 -35z m66 15 c10 -11 16 -20
13 -20 -3 0 -13 9 -23 20 -10 11 -16 20 -13 20 3 0 13 -9 23 -20z m-47 -55
c-3 -3 -9 2 -12 12 -6 14 -5 15 5 6 7 -7 10 -15 7 -18z m-157 -52 c-8 -15 -10
-15 -11 -2 0 17 10 32 18 25 2 -3 -1 -13 -7 -23z m36 -25 c-3 -8 -6 -5 -6 6
-1 11 2 17 5 13 3 -3 4 -12 1 -19z m20 0 c-3 -8 -6 -5 -6 6 -1 11 2 17 5 13 3
-3 4 -12 1 -19z m298 -78 c6 0 19 -13 28 -30 12 -20 14 -30 6 -30 -8 0 -7 -5
2 -17 13 -16 12 -17 -3 -4 -10 7 -15 17 -13 22 3 4 -1 11 -8 16 -14 8 -48 75
-46 90 1 4 6 -4 12 -19 6 -16 16 -28 22 -28z m-101 -86 c3 -8 2 -12 -4 -9 -6
3 -10 10 -10 16 0 14 7 11 14 -7z m240 0 c5 -14 4 -15 -9 -4 -17 14 -19 20 -6
20 5 0 12 -7 15 -16z m-240 -39 c3 -8 1 -15 -4 -15 -6 0 -10 7 -10 15 0 8 2
15 4 15 2 0 6 -7 10 -15z m-2 -55 c-2 -16 -6 -30 -8 -30 -2 0 -4 14 -4 30 0
17 4 30 8 30 5 0 7 -13 4 -30z m87 -34 c-9 -8 -10 -8 -5 1 3 6 2 14 -4 18 -5
3 -10 16 -10 28 1 20 2 19 16 -7 13 -22 13 -31 3 -40z m-394 -106 c-3 -5 -16
-15 -28 -21 -22 -12 -22 -12 -3 10 19 21 43 30 31 11z m1240 -290 c3 -5 1 -10
-4 -10 -6 0 -11 5 -11 10 0 6 2 10 4 10 3 0 8 -4 11 -10z m-681 -619 c-10 -10
-21 -17 -23 -15 -6 6 20 34 32 34 6 0 2 -8 -9 -19z m-77 -23 c-3 -8 -6 -5 -6
6 -1 11 2 17 5 13 3 -3 4 -12 1 -19z m488 -7 c3 -5 -4 -12 -14 -16 -26 -8
-111 -3 -111 6 0 16 115 25 125 10z m89 -118 c-19 -28 -19 -28 -22 -5 -4 28
17 57 31 43 7 -7 4 -19 -9 -38z m76 21 c0 -10 -6 -14 -15 -10 -8 3 -15 0 -15
-6 0 -6 -2 -9 -5 -6 -3 3 -3 13 1 22 8 21 34 21 34 0z m-140 -394 c0 -5 -5
-10 -11 -10 -5 0 -7 5 -4 10 3 6 8 10 11 10 2 0 4 -4 4 -10z m17 -12 c-3 -8
-6 -5 -6 6 -1 11 2 17 5 13 3 -3 4 -12 1 -19z m-73 -19 c-8 -14 -24 -10 -24 6
0 9 6 12 15 9 8 -4 12 -10 9 -15z m9 -72 c-8 -14 -35 24 -28 40 5 15 8 14 19
-7 7 -14 11 -28 9 -33z m399 -607 c-4 -39 -14 -50 -27 -30 -5 8 20 70 28 70 1
0 1 -18 -1 -40z m68 -11 c0 -6 -4 -7 -10 -4 -5 3 -10 11 -10 16 0 6 5 7 10 4
6 -3 10 -11 10 -16z m-110 -41 c0 -6 -7 -5 -15 2 -8 7 -15 17 -15 22 0 6 7 5
15 -2 8 -7 15 -17 15 -22z m-45 2 c-3 -5 -11 -10 -16 -10 -6 0 -7 5 -4 10 3 6
11 10 16 10 6 0 7 -4 4 -10z m-20 -24 c10 4 12 0 8 -15 -3 -12 0 -28 7 -36 7
-8 9 -15 5 -15 -8 0 -55 52 -55 61 0 11 15 20 18 10 2 -5 9 -8 17 -5z m188
-54 c7 -32 7 -32 -14 -13 -15 14 -19 26 -14 41 9 27 20 16 28 -28z m-213 18
c0 -5 -2 -10 -4 -10 -3 0 -8 5 -11 10 -3 6 -1 10 4 10 6 0 11 -4 11 -10z m-50
-65 c10 -12 10 -19 2 -27 -14 -14 -17 -11 -26 20 -8 25 5 29 24 7z m-50 -30
c0 -9 -6 -12 -15 -9 -8 4 -12 10 -9 15 8 14 24 10 24 -6z m250 -2 c-1 -22 -27
-59 -36 -50 -3 3 -2 12 2 19 9 13 10 18 13 38 2 18 21 11 21 -7z m-289 -26
c-6 -6 -11 -25 -12 -41 0 -17 -3 -25 -6 -18 -8 21 7 83 18 76 7 -4 7 -10 0
-17z m1466 -110 c7 0 10 -4 7 -9 -3 -5 -10 -5 -16 -2 -6 4 -18 -3 -27 -15
l-17 -22 2 28 c2 37 1 36 22 28 9 -4 22 -8 29 -8z m-1002 -43 c9 -9 15 -28 13
-43 -2 -21 -9 -27 -33 -29 -46 -6 -71 40 -39 72 20 20 38 20 59 0z m269 -69
c-8 -33 -17 -67 -19 -75 -2 -8 -4 -25 -4 -38 -1 -34 -17 -18 -24 23 -4 26 0
46 13 70 10 18 16 36 13 39 -4 3 -1 6 5 6 6 0 14 9 17 21 14 43 13 11 -1 -46z
m372 53 c0 -14 -36 -53 -36 -40 0 8 29 52 34 52 1 0 3 -6 2 -12z m-2 -120 c4
-24 10 -64 15 -90 4 -27 5 -48 1 -48 -9 0 -6 -32 4 -48 9 -15 -6 -16 -22 0 -9
9 -12 9 -12 -1 0 -8 8 -20 18 -27 15 -12 14 -12 -8 -8 -19 4 -21 3 -11 -4 12
-9 12 -13 2 -26 -8 -9 -21 -16 -30 -16 -13 0 -13 2 -2 9 8 5 11 16 6 30 -4 13
-1 28 5 36 7 8 8 15 4 15 -5 0 -15 9 -22 21 -8 12 -9 18 -3 15 16 -10 24 13
10 30 -9 11 -9 18 -1 26 8 8 9 15 1 25 -7 8 -8 13 -1 13 5 0 12 11 14 25 3 14
1 25 -3 25 -5 0 -4 11 3 25 15 32 24 25 32 -27z m-661 -11 c20 17 20 17 14 0
-4 -11 -1 -25 9 -34 8 -8 13 -18 10 -20 -8 -8 -85 56 -97 80 -6 12 2 7 16 -11
27 -32 28 -33 48 -15z m181 -239 c-11 -17 -24 -6 -24 19 0 26 1 26 14 8 8 -11
12 -23 10 -27z m443 -50 c-3 -8 -6 -5 -6 6 -1 11 2 17 5 13 3 -3 4 -12 1 -19z
m-551 -20 c-9 -12 -16 -19 -16 -15 0 11 24 47 28 42 2 -2 -3 -14 -12 -27z m81
9 c0 -7 -6 -18 -14 -25 -16 -15 -17 -8 -3 19 12 22 17 24 17 6z m-102 -63 c1
-13 -2 -24 -5 -24 -3 0 -7 -9 -8 -20 -4 -43 -6 -49 -14 -44 -4 3 -8 -7 -8 -21
0 -14 -4 -24 -9 -21 -5 3 -12 -10 -16 -30 -4 -25 -10 -34 -20 -30 -9 3 -12 0
-8 -9 3 -8 -7 -39 -23 -67 -15 -29 -36 -69 -45 -88 -15 -29 -18 -31 -19 -13 0
12 5 25 10 28 6 3 10 16 10 29 0 12 5 27 10 32 6 6 13 27 15 48 3 21 9 46 15
55 5 10 6 21 2 25 -3 4 1 4 10 1 13 -5 20 5 32 50 9 30 21 53 26 50 11 -7 24
31 15 45 -3 6 1 13 9 16 9 3 13 11 9 18 -3 6 -2 7 3 3 5 -5 9 -20 9 -33z m72
-166 c-3 -8 -6 -5 -6 6 -1 11 2 17 5 13 3 -3 4 -12 1 -19z m-523 -72 c-3 -9
-10 -13 -16 -10 -5 3 -4 12 3 20 15 18 22 13 13 -10z m956 9 c0 -8 -2 -15 -4
-15 -2 0 -6 7 -10 15 -3 8 -1 15 4 15 6 0 10 -7 10 -15z m-885 -34 c-3 -12
-13 -21 -21 -21 -18 0 -18 5 3 30 20 23 27 20 18 -9z m-189 -8 c-10 -10 -19 5
-10 18 6 11 8 11 12 0 2 -7 1 -15 -2 -18z m399 -23 c3 -5 1 -10 -4 -10 -6 0
-11 5 -11 10 0 6 2 10 4 10 3 0 8 -4 11 -10z m171 -2 c5 -7 3 -8 -6 -3 -10 6
-12 2 -7 -16 3 -13 2 -33 -2 -44 -5 -13 -8 -4 -8 28 -1 45 8 59 23 35z m-576
-26 c0 -13 -12 -22 -22 -16 -10 6 -1 24 13 24 5 0 9 -4 9 -8z"/>
<path d="M1502 3750 c-12 -16 -22 -32 -22 -37 0 -4 11 8 25 27 14 19 25 35 25
37 0 8 -8 0 -28 -27z"/>
<path d="M2660 3770 c-10 -6 -11 -10 -2 -10 6 0 12 -9 12 -19 0 -21 17 -37 27
-27 3 3 1 12 -5 19 -7 8 -9 17 -5 20 3 4 1 7 -6 7 -7 0 -9 5 -6 10 8 12 4 12
-15 0z"/>
<path d="M2247 3745 c3 -8 9 -12 14 -9 12 7 11 11 -5 17 -10 4 -13 1 -9 -8z"/>
<path d="M2710 3750 c0 -5 5 -10 10 -10 6 0 10 5 10 10 0 6 -4 10 -10 10 -5 0
-10 -4 -10 -10z"/>
<path d="M1470 3685 c-7 -9 -10 -18 -7 -21 3 -3 10 4 17 15 13 25 8 27 -10 6z"/>
<path d="M1447 3630 c-3 -11 -1 -20 4 -20 5 0 9 2 9 4 0 2 3 11 6 20 3 9 2 16
-4 16 -5 0 -12 -9 -15 -20z"/>
<path d="M1450 3590 c0 -5 5 -10 11 -10 5 0 7 5 4 10 -3 6 -8 10 -11 10 -2 0
-4 -4 -4 -10z"/>
<path d="M2124 3439 c-3 -5 -14 -9 -25 -9 -10 0 -19 -4 -19 -9 0 -6 -12 -9
-27 -7 -16 1 -40 -4 -55 -12 -19 -11 -30 -13 -40 -5 -9 8 -17 7 -26 -3 -11
-12 -10 -15 4 -21 16 -6 16 -7 -2 -13 -16 -6 -14 -9 16 -23 19 -9 51 -17 70
-19 l35 -3 -59 -30 c-51 -26 -106 -77 -106 -99 0 -4 23 11 51 33 79 63 177 83
149 31 -6 -11 -19 -20 -29 -20 -11 0 -51 -18 -90 -41 -68 -39 -88 -55 -79 -65
9 -8 88 25 110 46 l22 20 15 -27 c16 -31 31 -44 43 -37 4 3 8 0 8 -5 0 -6 11
-11 25 -11 14 0 25 -4 25 -10 0 -5 -4 -10 -10 -10 -5 0 -7 -6 -4 -13 3 -9 -7
-18 -28 -24 -31 -10 -32 -11 -7 -12 34 -1 158 37 175 54 15 15 8 25 -18 25
-16 0 -17 2 -6 13 7 7 21 16 32 20 11 4 16 13 12 22 -3 8 -1 15 5 15 6 0 7 5
4 10 -3 6 -2 10 4 10 7 0 7 8 1 25 -5 14 -6 25 -2 25 4 1 -5 11 -20 23 -19 16
-25 26 -18 36 7 12 12 12 23 3 12 -10 16 -9 21 3 3 8 3 22 0 30 -4 8 -2 15 4
15 6 0 9 -11 7 -25 -1 -14 2 -28 6 -31 5 -3 9 10 9 30 0 19 3 42 7 52 4 11 3
15 -4 11 -6 -4 -14 -1 -16 5 -3 8 -6 6 -6 -4 -1 -11 -6 -15 -16 -12 -8 4 -15
1 -15 -5 0 -9 -5 -9 -20 -1 -10 6 -17 17 -14 24 3 8 1 17 -4 20 -16 10 -112
14 -118 5z m-54 -239 c0 -5 -5 -10 -11 -10 -5 0 -7 5 -4 10 3 6 8 10 11 10 2
0 4 -4 4 -10z"/>
<path d="M1516 3038 c-8 -54 7 -141 32 -192 l19 -38 7 83 c16 172 17 158 -15
174 -15 8 -30 15 -32 15 -3 0 -8 -19 -11 -42z"/>
<path d="M1660 2912 c0 -11 -9 -29 -20 -42 -25 -29 -34 -78 -21 -113 11 -28
26 -33 49 -18 16 10 27 106 18 155 -7 37 -26 50 -26 18z"/>
<path d="M2310 2700 c-12 -8 -12 -10 3 -16 22 -8 70 4 62 16 -8 13 -45 13 -65
0z"/>
<path d="M1719 2668 c4 -28 6 -29 9 -9 2 13 0 27 -5 32 -6 6 -7 -3 -4 -23z"/>
<path d="M1736 2493 c-4 -10 -4 -14 0 -10 5 4 16 -16 25 -45 13 -42 17 -47 18
-25 1 26 -23 97 -32 97 -3 0 -8 -8 -11 -17z"/>
<path d="M2310 2370 c-13 -8 -12 -10 3 -10 9 0 17 5 17 10 0 12 -1 12 -20 0z"/>
<path d="M1790 2349 c0 -17 23 -69 31 -69 4 0 6 8 2 18 -7 19 -33 59 -33 51z"/>
<path d="M2397 2173 c-4 -3 -7 -11 -7 -17 0 -6 5 -5 12 2 6 6 9 14 7 17 -3 3
-9 2 -12 -2z"/>
<path d="M1896 1800 c3 -47 6 -98 7 -115 1 -16 6 -33 10 -36 4 -3 9 -32 11
-63 1 -33 8 -61 16 -66 7 -4 14 -35 17 -76 5 -93 11 -114 28 -114 8 0 15 4 15
9 0 5 5 22 10 36 9 23 13 25 25 15 20 -16 20 -60 0 -60 -11 0 -15 -12 -15 -45
0 -27 -5 -45 -12 -45 -21 0 -75 -49 -88 -79 -15 -38 -3 -75 46 -136 53 -68 53
-115 -3 -158 -13 -10 -30 -32 -38 -48 -16 -30 -9 -39 13 -17 9 9 12 9 12 -1 0
-7 5 -9 10 -6 6 4 8 11 5 16 -4 5 -2 9 4 9 5 0 12 -6 14 -12 3 -8 6 -6 6 5 2
43 21 6 70 -140 29 -87 61 -177 72 -200 10 -24 19 -51 19 -61 0 -11 9 -45 21
-78 11 -32 22 -68 23 -79 2 -11 8 -38 14 -60 6 -22 13 -49 15 -60 2 -11 6 -27
9 -35 3 -8 11 -34 17 -57 12 -42 13 -43 55 -43 30 0 46 5 50 15 3 8 1 15 -4
15 -6 0 -10 11 -10 24 0 26 23 56 43 56 8 0 7 4 -1 12 -9 9 -15 9 -24 0 -26
-26 -36 -14 -26 28 6 22 14 40 19 40 5 0 9 5 9 10 0 15 -30 12 -31 -2 0 -7 -6
3 -12 22 -7 19 -9 36 -5 38 3 2 -2 18 -12 35 -12 20 -18 46 -16 69 2 21 0 35
-4 33 -4 -3 -14 21 -23 53 -31 116 -56 199 -85 277 -16 44 -35 114 -42 155 -7
41 -19 82 -25 90 -29 35 -42 79 -43 152 -1 43 2 80 8 83 5 3 10 -2 10 -12 0
-10 7 -29 16 -41 8 -12 12 -27 8 -34 -4 -6 -3 -8 4 -4 6 3 15 -8 22 -28 6 -19
18 -40 26 -47 8 -7 11 -16 6 -23 -18 -23 -20 -44 -5 -50 12 -5 14 -1 9 19 -6
22 1 19 45 -25 42 -41 49 -54 38 -61 -10 -7 -4 -9 21 -7 55 3 61 -5 54 -75 -7
-67 -9 -60 80 -297 61 -162 85 -232 94 -278 l8 -37 17 60 c10 33 24 75 32 93
8 18 15 40 15 50 0 9 12 46 27 81 24 57 25 64 10 72 -13 8 -14 15 -6 36 5 15
8 32 5 40 -3 7 -1 24 4 37 5 15 5 27 -2 34 -6 6 -2 15 13 26 21 14 19 21 -3
17 -11 -1 -10 27 1 33 7 5 8 56 0 76 -1 3 -2 10 -3 15 -1 6 -6 18 -10 28 -5
10 -6 20 -3 23 3 3 -2 14 -11 23 -43 45 -57 69 -61 101 -1 19 -7 43 -13 53 -6
12 -6 23 2 32 10 12 5 21 -21 47 -18 18 -33 36 -32 39 1 4 -8 5 -20 2 -18 -4
-19 -3 -7 6 13 9 11 11 -6 11 -21 0 -133 53 -144 68 -3 4 -29 18 -59 32 -59
27 -120 91 -216 224 -65 91 -91 151 -110 251 l-14 70 5 -85z"/>
<path d="M1743 1635 c-65 -72 -119 -185 -94 -193 7 -2 -32 -26 -86 -52 -121
-58 -140 -65 -146 -48 -2 8 -3 7 -3 -2 1 -9 -19 -23 -54 -36 -151 -57 -252
-94 -325 -119 -355 -122 -578 -208 -583 -225 -3 -8 1 -9 14 -2 68 36 224 96
464 177 74 25 178 62 230 81 135 51 130 50 130 22 0 -13 -6 -32 -13 -43 -7
-11 -12 -36 -10 -55 3 -19 5 -45 5 -57 0 -13 4 -20 10 -17 5 3 8 0 6 -8 -3
-14 2 -18 26 -18 11 0 14 12 13 46 -1 28 3 48 10 51 6 3 15 17 18 33 3 15 15
36 26 46 10 9 19 23 19 30 0 7 12 21 27 32 l27 20 -24 -4 c-23 -3 -51 -10
-120 -30 -14 -4 -22 -4 -19 -1 10 12 181 68 187 62 4 -3 0 -10 -7 -14 -7 -5
-11 -17 -9 -26 2 -14 10 -9 31 24 24 36 106 101 128 101 15 0 17 -29 3 -55 -8
-15 -14 -36 -14 -46 0 -11 -4 -19 -9 -19 -5 0 -8 -24 -6 -52 1 -29 4 -53 5
-53 8 0 7 -42 -2 -58 -7 -14 -7 -18 2 -12 7 4 5 -6 -4 -24 -22 -41 -4 -40 27
2 22 28 49 97 62 153 2 10 11 42 18 70 10 34 11 57 5 68 -6 10 -7 20 -4 23 3
4 6 1 6 -7 0 -10 3 -10 15 0 8 7 15 17 15 22 0 6 10 24 22 41 l23 32 -29 -22
c-30 -24 -56 -30 -56 -13 0 5 5 9 11 7 6 -1 21 25 33 58 13 33 33 79 45 103
40 77 21 80 -46 7z"/>
<path d="M1456 1423 c-3 -3 -6 -22 -6 -42 0 -39 14 -33 24 11 6 26 -4 44 -18
31z"/>
<path d="M1153 1347 c-18 -12 -33 -28 -33 -34 0 -7 -4 -13 -8 -13 -11 0 -37
-78 -30 -86 10 -9 46 50 50 81 2 19 11 34 26 41 13 6 29 17 35 23 18 18 -6 11
-40 -12z"/>
<path d="M1357 1363 c-11 -10 -8 -43 3 -43 6 0 10 11 10 25 0 26 -2 29 -13 18z"/>
<path d="M1227 1290 c-3 -11 -1 -20 4 -20 5 0 9 2 9 4 0 2 3 11 6 20 3 9 2 16
-4 16 -5 0 -12 -9 -15 -20z"/>
<path d="M1881 1287 c-13 -21 -12 -21 5 -5 10 10 16 20 13 22 -3 3 -11 -5 -18
-17z"/>
<path d="M1186 1205 c-26 -14 -54 -25 -62 -25 -24 0 -76 -41 -71 -55 3 -6 -9
-20 -26 -29 -18 -10 -24 -11 -14 -3 20 16 24 61 5 55 -7 -3 -23 -26 -35 -51
-13 -26 -28 -47 -34 -47 -7 0 -9 -10 -5 -27 3 -16 8 -39 10 -53 3 -21 2 -22
-9 -7 -6 9 -15 14 -18 11 -3 -3 -3 3 -1 14 4 14 0 21 -16 25 -12 3 -19 3 -16
0 3 -4 0 -13 -6 -21 -10 -11 -8 -17 7 -28 10 -8 15 -14 9 -14 -5 0 -1 -5 9
-11 14 -8 15 -14 7 -24 -9 -11 -7 -12 8 -8 31 8 34 -30 5 -61 -13 -14 -22 -30
-19 -35 3 -5 -1 -14 -9 -21 -8 -7 -15 -20 -15 -29 0 -16 -34 -61 -46 -61 -2 0
0 9 6 20 6 12 7 20 1 20 -5 0 -12 -6 -14 -12 -4 -9 -6 -9 -6 1 -1 8 7 23 16
33 14 15 15 21 4 27 -8 5 -9 11 -3 15 5 3 8 25 6 48 -5 64 -6 69 -18 65 -7 -3
-11 14 -11 45 0 40 5 54 23 68 23 19 28 35 13 45 -14 8 -61 -40 -61 -63 0 -11
-3 -28 -7 -37 -5 -15 -8 -14 -19 6 -10 19 -13 20 -14 7 0 -10 -5 -18 -11 -18
-5 0 -7 -4 -4 -10 3 -5 1 -10 -5 -10 -6 0 -8 -5 -5 -10 3 -6 -1 -13 -9 -16 -9
-3 -16 -18 -16 -33 0 -14 -9 -37 -20 -51 -11 -14 -20 -32 -20 -42 0 -9 -5 -18
-11 -20 -6 -2 -11 -15 -10 -28 0 -14 1 -51 1 -83 0 -32 4 -56 8 -53 4 2 7 -10
8 -27 1 -45 12 -137 19 -167 16 -65 25 -189 21 -299 l-3 -121 147 0 c110 0
147 3 147 13 1 6 3 30 6 52 4 21 1 45 -4 51 -7 9 -6 15 3 21 17 11 19 91 2 97
-8 3 -11 0 -7 -10 3 -9 -1 -14 -13 -14 -11 0 -15 3 -9 8 6 4 10 14 10 22 -1 8
7 23 17 33 21 21 25 63 6 51 -16 -10 11 26 31 42 12 9 10 15 -12 34 -14 13
-24 27 -21 32 3 5 0 15 -6 23 -6 8 -9 19 -5 24 3 6 1 20 -6 32 -8 15 -8 19 0
15 6 -4 11 -4 12 1 4 45 3 73 -4 73 -11 0 -5 33 8 43 7 6 7 10 0 13 -13 5 -10
60 4 97 6 16 9 32 6 37 -3 4 2 13 10 20 10 9 15 9 15 1 0 -6 -1 -13 -2 -14 -2
-2 2 -10 8 -18 7 -8 15 -33 19 -57 4 -23 11 -40 16 -37 5 4 6 -2 2 -11 -5 -14
-3 -16 11 -11 15 6 18 3 14 -18 -3 -14 -2 -25 2 -25 8 0 25 -49 22 -63 -1 -4
2 -6 7 -5 8 3 13 -5 10 -17 -5 -20 -3 -65 4 -65 4 0 7 6 7 13 0 8 8 22 19 31
17 16 19 16 25 0 4 -10 -1 -25 -10 -36 -24 -26 -13 -31 19 -9 24 16 26 19 12
31 -18 15 -20 41 -2 59 10 10 9 11 -5 6 -13 -5 -18 -2 -18 10 0 9 4 14 9 11
16 -10 -30 153 -54 190 -8 13 -15 35 -15 49 0 15 -3 24 -7 22 -5 -3 -8 17 -8
43 0 26 2 47 5 45 3 -2 3 23 0 56 -3 34 -2 63 4 69 6 6 7 10 3 10 -3 0 -2 11
3 25 6 17 6 25 -1 25 -6 0 -7 5 -3 11 3 6 15 9 25 6 11 -3 19 0 19 7 0 6 14
28 31 49 17 20 29 37 26 37 -2 0 -25 -11 -51 -25z m-351 -165 c-3 -5 -12 -10
-18 -10 -7 0 -6 4 3 10 19 12 23 12 15 0z m8 -174 c-3 -4 -9 -2 -14 5 -13 22
-11 31 5 17 8 -7 12 -17 9 -22z m147 -6 c0 -5 -5 -10 -11 -10 -5 0 -7 5 -4 10
3 6 8 10 11 10 2 0 4 -4 4 -10z m22 -465 c13 -17 9 -37 -6 -32 -10 4 -13 1
-10 -7 3 -8 1 -16 -3 -19 -5 -3 -9 12 -10 33 -1 38 12 49 29 25z m-25 -102
c-9 -9 -20 -13 -24 -9 -4 4 -1 11 7 16 25 16 35 11 17 -7z"/>
<path d="M1821 1113 c-1 -12 4 -25 9 -28 12 -7 12 2 0 30 -8 19 -9 19 -9 -2z"/>
<path d="M1841 1034 c0 -11 3 -14 6 -6 3 7 2 16 -1 19 -3 4 -6 -2 -5 -13z"/>
<path d="M1307 1016 c-3 -8 0 -13 6 -12 15 2 22 19 9 24 -5 1 -12 -4 -15 -12z"/>
<path d="M2130 921 c0 -5 7 -12 16 -15 24 -9 28 -7 14 9 -14 17 -30 20 -30 6z"/>
<path d="M540 870 c0 -28 13 -40 24 -22 7 12 -5 52 -15 52 -5 0 -9 -13 -9 -30z"/>
<path d="M2190 892 c0 -7 -7 -9 -17 -5 -15 6 -16 5 -3 -9 13 -14 16 -14 23 -1
5 8 6 17 3 20 -3 4 -6 1 -6 -5z"/>
<path d="M1874 830 c0 -30 -3 -61 -8 -69 -7 -10 -3 -12 15 -6 20 7 22 5 13 -6
-14 -18 -24 -59 -14 -59 4 0 6 -30 4 -67 -3 -67 13 -143 29 -143 5 0 6 4 3 9
-3 5 0 14 7 20 11 8 13 4 9 -19 -2 -17 -8 -30 -13 -30 -5 0 -9 -5 -9 -11 0 -5
3 -8 8 -5 8 5 5 -94 -3 -102 -3 -3 -1 -10 4 -16 13 -17 31 -76 23 -76 -4 0 -8
-18 -8 -40 -1 -35 1 -40 20 -39 11 0 15 3 9 6 -7 2 -13 9 -13 14 0 6 5 7 11 3
7 -4 10 3 9 17 -1 13 -1 26 0 29 6 14 4 80 -2 80 -5 0 -8 5 -8 11 0 6 7 9 15
5 8 -3 15 -1 15 4 0 18 -40 11 -41 -7 0 -13 -2 -14 -6 -4 -3 8 2 20 12 27 16
12 17 20 8 59 -5 24 -6 42 -2 39 5 -3 9 4 9 15 0 12 -4 21 -9 21 -5 0 -13 15
-16 33 -4 17 -11 37 -15 42 -11 14 -10 123 1 154 8 20 7 28 -7 38 -10 7 -14
13 -9 13 5 0 0 7 -12 15 -15 11 -23 29 -26 58 -3 32 -4 29 -3 -13z m42 -95
c-21 -16 -32 -13 -21 4 3 6 14 11 23 11 15 -1 15 -2 -2 -15z"/>
<path d="M482 787 c-31 -33 -27 -45 5 -13 14 14 24 28 21 31 -2 3 -14 -5 -26
-18z"/>
<path d="M485 721 c-3 -10 -14 -26 -25 -36 -11 -10 -20 -22 -20 -27 0 -14 47
-9 61 8 15 18 20 54 7 54 -5 0 -6 5 -3 10 3 6 2 10 -4 10 -5 0 -12 -8 -16 -19z"/>
<path d="M565 640 c-3 -5 -1 -10 4 -10 6 0 11 5 11 10 0 6 -2 10 -4 10 -3 0
-8 -4 -11 -10z"/>
<path d="M471 616 c-34 -25 -32 -33 7 -30 l23 1 -27 -28 c-36 -38 -28 -51 21
-34 35 12 38 12 21 -1 -11 -7 -16 -14 -12 -14 4 0 0 -7 -8 -16 -10 -10 -14
-24 -10 -39 4 -16 0 -26 -12 -33 -12 -7 -15 -16 -10 -36 4 -15 11 -24 16 -21
6 4 8 10 5 15 -3 5 0 12 6 16 8 4 9 3 5 -4 -4 -7 -3 -12 3 -12 5 0 13 5 16 10
3 6 15 10 26 10 10 0 19 5 19 10 0 6 -5 10 -12 10 -9 0 -9 3 0 12 16 16 15 31
0 22 -10 -5 -10 -4 -2 5 12 13 7 54 -5 47 -3 -2 -6 22 -5 54 0 36 -4 56 -10
53 -5 -4 -7 1 -3 10 9 24 -13 21 -52 -7z"/>
<path d="M3284 619 c-3 -6 -1 -16 4 -21 8 -8 11 -5 9 11 -1 24 -3 25 -13 10z"/>
<path d="M571 594 c0 -11 3 -14 6 -6 3 7 2 16 -1 19 -3 4 -6 -2 -5 -13z"/>
<path d="M1575 559 c-4 -6 -5 -12 -2 -15 2 -3 7 2 10 11 7 17 1 20 -8 4z"/>
<path d="M1689 503 c-13 -16 -12 -17 4 -4 16 13 21 21 13 21 -2 0 -10 -8 -17
-17z"/>
<path d="M565 490 c-3 -5 -1 -10 6 -10 7 0 9 -10 6 -30 -4 -16 -2 -30 3 -30 5
0 7 -9 5 -20 -2 -11 1 -20 7 -20 6 0 8 12 4 31 -3 17 -6 44 -6 60 0 29 -13 38
-25 19z"/>
<path d="M1526 464 c-5 -14 -4 -15 9 -4 17 14 19 20 6 20 -5 0 -12 -7 -15 -16z"/>
<path d="M1695 458 c-4 -13 -12 -26 -18 -29 -5 -4 -8 -12 -5 -20 2 -7 12 5 22
25 10 21 15 40 13 43 -3 2 -8 -6 -12 -19z"/>
<path d="M1170 425 c-7 -9 -11 -18 -8 -20 3 -3 11 1 18 10 7 9 11 18 8 20 -3
3 -11 -1 -18 -10z"/>
<path d="M1245 374 c-9 -15 -12 -23 -6 -20 11 7 35 46 28 46 -3 0 -12 -12 -22
-26z"/>
<path d="M2396 374 c22 -39 12 -79 -24 -98 -23 -13 -24 -15 -7 -16 62 -1 85
67 40 117 l-25 28 16 -31z"/>
<path d="M509 351 c-42 -45 -42 -68 1 -46 16 8 36 15 45 15 8 0 15 5 15 10 0
6 -4 10 -9 10 -4 0 -6 11 -3 25 6 34 -6 30 -49 -14z"/>
<path d="M1643 375 c0 -8 4 -12 9 -9 5 3 6 10 3 15 -9 13 -12 11 -12 -6z"/>
<path d="M591 354 c0 -11 3 -14 6 -6 3 7 2 16 -1 19 -3 4 -6 -2 -5 -13z"/>
<path d="M3255 349 c-4 -6 -5 -12 -2 -15 2 -3 7 2 10 11 7 17 1 20 -8 4z"/>
<path d="M532 287 c-12 -13 -22 -29 -22 -37 0 -7 -8 -19 -17 -26 -17 -12 -17
-14 1 -31 10 -10 16 -12 12 -5 -4 6 -2 12 3 12 6 0 11 -6 11 -14 0 -8 6 -17
13 -20 9 -5 9 -7 -1 -12 -6 -3 -10 -9 -7 -14 2 -4 -4 -15 -15 -25 -37 -34 -16
-38 52 -10 17 7 21 45 5 45 -5 0 -4 7 3 15 10 12 8 14 -9 10 -31 -6 -35 12 -7
30 16 11 22 22 19 35 -3 11 -10 17 -17 13 -6 -3 -6 0 2 8 14 15 16 49 4 49 -5
0 -18 -10 -30 -23z"/>
<path d="M592 250 c0 -14 2 -19 5 -12 2 6 2 18 0 25 -3 6 -5 1 -5 -13z"/>
<path d="M2391 204 c0 -11 3 -14 6 -6 3 7 2 16 -1 19 -3 4 -6 -2 -5 -13z"/>
<path d="M462 185 c0 -16 2 -22 5 -12 2 9 2 23 0 30 -3 6 -5 -1 -5 -18z"/>
<path d="M1560 188 c-6 -13 -19 -36 -29 -53 -24 -36 -28 -69 -6 -39 8 10 15
27 15 38 0 16 2 17 18 5 9 -7 14 -10 11 -6 -4 5 -3 24 1 43 9 39 4 45 -10 12z"/>
<path d="M1820 200 c-1 -8 -2 -21 -1 -29 2 -8 -3 -10 -11 -6 -10 6 -11 5 -1
-5 17 -19 25 -8 20 27 -2 15 -5 21 -7 13z"/>
<path d="M2415 151 c-9 -15 7 -36 28 -37 18 -2 18 -1 0 20 -10 11 -19 22 -19
24 -1 2 -5 -1 -9 -7z"/>
<path d="M1942 127 c2 -25 28 -34 28 -10 0 7 -6 13 -12 13 -9 0 -8 4 2 10 13
8 12 10 -2 10 -13 0 -17 -7 -16 -23z"/>
<path d="M437 113 c-3 -5 -1 -17 4 -28 7 -17 8 -17 8 8 1 27 -4 34 -12 20z"/>
<path d="M471 84 c0 -11 3 -14 6 -6 3 7 2 16 -1 19 -3 4 -6 -2 -5 -13z"/>
<path d="M560 89 c0 -5 5 -7 10 -4 6 3 10 8 10 11 0 2 -4 4 -10 4 -5 0 -10 -5
-10 -11z"/>
<path d="M1930 70 c6 -11 13 -20 16 -20 2 0 0 9 -6 20 -6 11 -13 20 -16 20 -2
0 0 -9 6 -20z"/>
<path d="M2428 66 c-8 -40 1 -66 23 -66 11 0 19 5 19 11 0 5 -4 7 -10 4 -6 -3
-10 4 -11 17 0 13 -4 32 -8 43 -7 17 -8 16 -13 -9z"/>
<path d="M4310 80 c0 -5 5 -10 11 -10 5 0 7 5 4 10 -3 6 -8 10 -11 10 -2 0 -4
-4 -4 -10z"/>
<path d="M530 44 c-21 -21 -22 -27 -10 -34 19 -12 22 -12 41 3 17 14 20 57 4
57 -7 0 -22 -11 -35 -26z"/>
<path d="M1490 60 c0 -5 5 -10 11 -10 5 0 7 5 4 10 -3 6 -8 10 -11 10 -2 0 -4
-4 -4 -10z"/>
<path d="M1545 60 c-3 -5 -1 -10 4 -10 6 0 11 5 11 10 0 6 -2 10 -4 10 -3 0
-8 -4 -11 -10z"/>
<path d="M1851 14 c0 -11 3 -14 6 -6 3 7 2 16 -1 19 -3 4 -6 -2 -5 -13z"/>
</g>
</svg>
